<svg id="SvgjsSvg1001" xmlns="http://www.w3.org/2000/svg" version="1.1" xmlns:xlink="http://www.w3.org/1999/xlink" xmlns:svgjs="http://svgjs.com/svgjs" viewBox="2.68 8.92 281.48 266.38"><defs id="SvgjsDefs1002"/><g id="SvgjsG1008"><svg xmlns="http://www.w3.org/2000/svg" viewBox="0 0 216 206" width="288" height="288"><path fill="#000000" d="M0 0 C1.7969141 1.25591278 1.7969141 1.25591278 3.65284729 2.95495605 C4.35294481 3.5941246 5.05304234 4.23329315 5.77435493 4.89183044 C9.70924767 8.619029 13.58368539 12.40166382 17.42944336 16.22070312 C18.33608734 17.11756332 19.24273132 18.01442352 20.17684937 18.9384613 C23.15165142 21.88223256 26.12122194 24.83124805 29.08984375 27.78125 C29.59693099 28.28503992 30.10401824 28.78882984 30.62647176 29.30788612 C35.41470647 34.06539896 40.20091857 38.82493804 44.98232174 43.58931732 C51.0757704 49.66080309 57.17910726 55.72196295 63.29613584 61.76969385 C67.61164805 66.03797505 71.91561663 70.31768151 76.21120936 74.60600805 C78.77195388 77.16180314 81.3374847 79.71231473 83.91557121 82.25062561 C86.78580421 85.07713733 89.63181249 87.92689574 92.47631836 90.77929688 C93.32977341 91.61275131 94.18322845 92.44620575 95.06254578 93.30491638 C101.38663939 99.70838071 101.38663939 99.70838071 102.1108551 103.9005127 C101.98104489 107.52998115 101.25619087 109.17976141 99 112 C95.50663182 114.32891212 94.13992135 114.23551143 90.01953125 114.1953125 C88.85615234 114.18886719 87.69277344 114.18242188 86.49414062 114.17578125 C85.27919922 114.15902344 84.06425781 114.14226562 82.8125 114.125 C81.58595703 114.11597656 80.35941406 114.10695313 79.09570312 114.09765625 C76.06360705 114.07406017 73.03190062 114.04113841 70 114 C70.00888245 114.97861496 70.01776489 115.95722992 70.0269165 116.96549988 C70.10802575 126.19089946 70.1679766 135.41622664 70.20724869 144.64190197 C70.22811776 149.384873 70.25642292 154.12755604 70.30175781 158.87036133 C70.34523992 163.44801474 70.36914223 168.02539125 70.37950897 172.60323524 C70.38689611 174.34915844 70.40132158 176.09506659 70.42292023 177.84087181 C70.45198629 180.28772018 70.45595476 182.73342651 70.45410156 185.18041992 C70.47567322 186.26151787 70.47567322 186.26151787 70.49768066 187.36445618 C70.4582199 192.1840896 69.41889336 194.61835507 66 198 C63.60417654 199.19791173 62.13222462 199.1206744 59.45849609 199.11352539 C58.04725967 199.11341209 58.04725967 199.11341209 56.60751343 199.11329651 C55.58976837 199.10813522 54.57202332 199.10297394 53.5234375 199.09765625 C51.96286118 199.09553383 51.96286118 199.09553383 50.37075806 199.09336853 C47.03880979 199.08775866 43.70692805 199.07520447 40.375 199.0625 C38.11979264 199.05748627 35.86458422 199.05292314 33.609375 199.04882812 C28.07289386 199.03778603 22.53645168 199.02103827 17 199 C16.99191315 198.34933563 16.98382629 197.69867126 16.97549438 197.02828979 C16.88933926 190.24717897 16.78983062 183.46635677 16.68261719 176.68554688 C16.6443689 174.15597385 16.60950883 171.6263472 16.578125 169.09667969 C16.53238496 165.45748756 16.47440406 161.81866323 16.4140625 158.1796875 C16.40251129 157.05134491 16.39096008 155.92300232 16.37905884 154.76046753 C16.35290307 147.14181866 16.35290307 147.14181866 14 140 C10.87378484 137.55578043 7.70659534 137.75489926 3.84375 137.76953125 C2.06291016 137.77243164 2.06291016 137.77243164 0.24609375 137.77539062 C-0.99011719 137.78763672 -2.22632812 137.79988281 -3.5 137.8125 C-5.35431641 137.8134668 -5.35431641 137.8134668 -7.24609375 137.81445312 C-14.20609108 137.73072602 -14.20609108 137.73072602 -21 139 C-21.8131322 142.58685355 -22.14618844 145.94171001 -22.20532227 149.61645508 C-22.22526749 150.71721878 -22.24521271 151.81798248 -22.26576233 152.95210266 C-22.28247482 154.1293541 -22.29918732 155.30660553 -22.31640625 156.51953125 C-22.3475779 158.34009285 -22.3475779 158.34009285 -22.37937927 160.19743347 C-22.44468916 164.06906551 -22.50367363 167.94076455 -22.5625 171.8125 C-22.60570285 174.43946002 -22.64931771 177.06641329 -22.69335938 179.69335938 C-22.80035158 186.12883571 -22.90215236 192.56437849 -23 199 C-29.74425389 199.10149262 -36.48831055 199.17150433 -43.2331543 199.21972656 C-45.52717448 199.23983106 -47.82114348 199.26711891 -50.11499023 199.30175781 C-53.41402826 199.35032559 -56.71238822 199.37298077 -60.01171875 199.390625 C-61.03585373 199.41127014 -62.05998871 199.43191528 -63.11515808 199.45318604 C-70.25088156 199.45543029 -70.25088156 199.45543029 -74.12426758 197.10058594 C-77.44410049 193.38278789 -77.13695477 190.28808647 -77.11352539 185.52099609 C-77.11367142 184.75017197 -77.11381744 183.97934784 -77.1139679 183.18516541 C-77.11326989 180.63122771 -77.10548275 178.07736249 -77.09765625 175.5234375 C-77.09579167 173.75509684 -77.09436796 171.98675567 -77.09336853 170.21841431 C-77.0895465 165.55935241 -77.07971888 160.90032158 -77.06866455 156.24127197 C-77.05844369 151.48897726 -77.05386946 146.73667753 -77.04882812 141.984375 C-77.03809634 132.65623633 -77.02102367 123.32812075 -77 114 C-77.76143311 114.02094727 -78.52286621 114.04189453 -79.30737305 114.06347656 C-82.76728032 114.14677795 -86.22697638 114.19870584 -89.6875 114.25 C-90.88568359 114.28351563 -92.08386719 114.31703125 -93.31835938 114.3515625 C-94.47529297 114.36445312 -95.63222656 114.37734375 -96.82421875 114.390625 C-97.88729248 114.41157227 -98.95036621 114.43251953 -100.0456543 114.45410156 C-103.75302313 113.8842556 -105.37750541 112.63926208 -108 110 C-109.09957981 106.22019439 -109.56081213 104.10323199 -107.75186253 100.54465866 C-105.99458368 97.99213255 -104.16066579 95.91174681 -101.97019958 93.72296143 C-101.15279297 92.90136032 -100.33538635 92.07975922 -99.49320984 91.23326111 C-98.60011612 90.3457869 -97.7070224 89.45831268 -96.78686523 88.54394531 C-95.83359268 87.589599 -94.88075344 86.63481969 -93.92831421 85.67964172 C-91.34828932 83.09478196 -88.76207833 80.51619509 -86.17455935 77.93883991 C-83.4669273 75.24000565 -80.76458295 72.53588626 -78.0615387 69.8324585 C-73.52465354 65.29650888 -68.98391735 60.76444382 -64.44067383 56.23486328 C-59.18464595 50.9945834 -53.93388577 45.74907245 -48.68609279 40.50054669 C-43.6380273 35.45187147 -38.58711349 30.40605651 -33.53459358 25.36183929 C-31.38353326 23.21431341 -29.23332776 21.06593694 -27.08376884 18.91690826 C-24.5556239 16.38976582 -22.02495116 13.86518208 -19.49227524 11.3425808 C-18.11695206 9.97158392 -16.74407576 8.59813384 -15.3712616 7.22462463 C-14.5566748 6.41430283 -13.74208801 5.60398102 -12.90281677 4.769104 C-11.8384598 3.7072608 -11.8384598 3.7072608 -10.75260067 2.62396622 C-7.32114566 -0.5556326 -4.59454708 -0.59284478 0 0 Z " transform="translate(111 2)" class="colorF3F3F3 svgShape"/><path fill="#000000" d="M0 0 C0.84691406 -0.02900391 1.69382813 -0.05800781 2.56640625 -0.08789062 C8.28232928 -0.14567212 11.37674377 0.55902053 15.75 4.3125 C16.9150499 6.6425998 16.8709358 7.98497077 16.86352539 10.57861328 C16.86344986 11.45937531 16.86337433 12.34013733 16.86329651 13.24758911 C16.85813522 14.19971283 16.85297394 15.15183655 16.84765625 16.1328125 C16.8462413 17.10660858 16.84482635 18.08040466 16.84336853 19.08370972 C16.83775973 22.20167073 16.82520573 25.3195606 16.8125 28.4375 C16.80748613 30.54817605 16.80292303 32.65885322 16.79882812 34.76953125 C16.78778745 39.95054521 16.77104073 45.13151752 16.75 50.3125 C10.32118977 44.87570442 4.15846302 39.21483112 -1.88647461 33.35571289 C-3.08925105 32.19989315 -4.30260371 31.05498157 -5.52612305 29.92114258 C-15.6416992 20.53149343 -15.6416992 20.53149343 -17.11523438 15.15625 C-17.22154171 10.5698478 -16.73452954 7.3470716 -13.875 3.6875 C-9.36574825 -0.3922992 -5.84595443 0.06553761 0 0 Z " transform="translate(180.25 24.688)" class="colorF3F3F3 svgShape"/></svg></g></svg>